<svg width="512" height="445" viewBox="0 0 512 445" fill="none" xmlns="http://www.w3.org/2000/svg">
<path d="M440.225 145.162C435.095 150.601 428.158 153.654 420.927 153.654C413.697 153.654 406.76 150.601 401.63 145.162L378.978 120.974C373.879 115.503 371.018 108.1 371.018 100.384C371.018 92.6678 373.879 85.2651 378.978 79.7939L430.259 25.0623C430.357 24.9571 430.43 24.8278 430.471 24.6856C430.513 24.5434 430.521 24.3926 430.495 24.2463C430.469 24.1001 430.41 23.9628 430.323 23.8463C430.236 23.7298 430.124 23.6378 429.997 23.5781C396.904 8.45675 353.987 16.1465 326.739 45.0233C300.66 72.6526 299.179 114.145 308.732 150.421C310.089 155.574 310.086 161.027 308.722 166.178C307.358 171.329 304.687 175.978 301.003 179.61L126.674 352.505C122.513 356.482 119.156 361.322 116.807 366.731C114.459 372.139 113.169 378.002 113.015 383.961C112.862 389.92 113.849 395.849 115.917 401.387C117.984 406.925 121.087 411.955 125.038 416.169C128.988 420.383 133.702 423.692 138.892 425.896C144.082 428.099 149.638 429.149 155.221 428.983C160.804 428.816 166.296 427.436 171.363 424.927C176.429 422.418 180.963 418.832 184.686 414.389L348.082 228.007C351.449 224.14 355.739 221.326 360.492 219.867C365.245 218.408 370.281 218.359 375.058 219.726C408.775 229.34 447.097 227.534 472.873 200.431C500.575 171.307 506.55 119.834 493.128 90.3767C493.067 90.2474 492.978 90.1355 492.869 90.0499C492.76 89.9644 492.633 89.9077 492.499 89.8847C492.365 89.8616 492.229 89.8727 492.1 89.9171C491.971 89.9615 491.853 90.0379 491.757 90.1401L440.225 145.162Z" fill="white" stroke="white" stroke-width="32" stroke-miterlimit="10" stroke-linecap="round"/>
<path d="M225.713 253C208.075 234.668 199.993 226.138 194.433 220.337C191.651 217.383 189.824 213.556 189.22 209.415C188.615 205.273 189.265 201.034 191.073 197.314C192.027 195.485 193.215 193.808 194.605 192.332L210.427 175.844C212.064 174.092 213.99 172.677 216.107 171.671C219.451 170.09 223.161 169.616 226.758 170.312C230.356 171.008 233.676 172.841 236.288 175.575C241.787 181.279 251.858 191.75 270 210.643" fill="white"/>
<path d="M225.713 253C208.075 234.668 199.993 226.138 194.433 220.337C191.651 217.383 189.824 213.556 189.22 209.415C188.615 205.273 189.265 201.034 191.073 197.314C192.027 195.485 193.215 193.808 194.605 192.332L210.427 175.844C212.064 174.092 213.99 172.677 216.107 171.671C219.451 170.09 223.161 169.616 226.758 170.312C230.356 171.008 233.676 172.841 236.288 175.575C241.787 181.279 251.858 191.75 270 210.643" stroke="white" stroke-width="32" stroke-linecap="round" stroke-linejoin="round"/>
<path d="M319.295 260C360.532 301.094 410.551 349.814 430.067 367.222C431.527 368.511 432.718 370.113 433.565 371.924C434.412 373.735 434.896 375.717 434.985 377.74C435.074 379.764 434.767 381.785 434.083 383.674C433.399 385.563 432.353 387.278 431.014 388.708L397.399 424.7C396.031 426.132 394.405 427.251 392.621 427.988C390.836 428.725 388.93 429.066 387.019 428.989C385.107 428.913 383.23 428.42 381.502 427.542C379.774 426.664 378.231 425.418 376.967 423.88C360.321 403.193 315.448 351.497 277 308.472" fill="white"/>
<path d="M319.295 260C360.532 301.094 410.551 349.814 430.067 367.222C431.527 368.511 432.718 370.113 433.565 371.924C434.412 373.735 434.896 375.717 434.985 377.74C435.074 379.764 434.767 381.785 434.083 383.674C433.399 385.563 432.353 387.278 431.014 388.708L397.399 424.7C396.031 426.132 394.405 427.251 392.621 427.988C390.836 428.725 388.93 429.066 387.019 428.989C385.107 428.913 383.23 428.42 381.502 427.542C379.774 426.664 378.231 425.418 376.967 423.88C360.321 403.193 315.448 351.497 277 308.472" stroke="white" stroke-width="32" stroke-linecap="round" stroke-linejoin="round"/>
<path d="M17.3507 155.353L46.9735 124.426C47.426 123.951 47.9631 123.578 48.5531 123.328C49.143 123.079 49.7738 122.958 50.4082 122.974C51.6869 122.959 52.9201 123.48 53.8429 124.426C54.9156 125.56 56.216 126.418 57.6454 126.934C59.0748 127.451 60.5955 127.612 62.0921 127.407C65.9498 126.955 70.0694 125.685 72.7386 122.974C78.782 116.732 71.7918 104.433 77.11 96.5665C83.1911 87.9553 89.8497 79.8274 97.0332 72.247C103.077 65.9196 127.089 41.7723 167.439 24.415C180.343 18.8427 194.133 15.9854 208.051 16.0001C230.804 16.0001 248.34 26.7609 254.646 32.8623C258.43 36.7093 261.895 40.9002 265 45.3879C261.967 44.1938 258.869 43.1983 255.723 42.4072C249.106 40.9076 242.319 40.4508 235.579 41.0513C222.152 42.2242 205.956 48.8637 197.304 56.1165C183.303 67.9534 177.29 83.7934 176.343 104.228C175.658 119.423 179.083 128.01 212.704 163.94C213.853 165.311 214.46 167.104 214.396 168.942C214.332 170.781 213.603 172.521 212.362 173.797L194.01 193.167C192.731 194.507 191.015 195.265 189.224 195.283C187.432 195.301 185.704 194.578 184.401 193.263C162.302 169.654 147.486 157.656 139.075 152.2C130.665 146.744 123.896 145.206 120.643 144.829C114.253 144.152 107.825 145.607 102.241 148.993C101.261 149.568 100.365 150.294 99.5815 151.146C98.2737 152.59 97.2466 154.296 96.5595 156.167C95.8724 158.037 95.5389 160.035 95.5782 162.044C95.6176 164.053 96.029 166.033 96.7887 167.871C97.5484 169.71 98.6414 171.369 100.005 172.753L101.727 174.475C102.174 174.939 102.529 175.495 102.772 176.108C103.015 176.722 103.14 177.381 103.14 178.048C103.14 178.714 103.015 179.373 102.772 179.987C102.529 180.6 102.174 181.156 101.727 181.62L72.1343 212.493C71.686 212.978 71.1508 213.361 70.5606 213.62C69.9705 213.879 69.3375 214.008 68.6996 214C67.4211 214.013 66.1883 213.492 65.2649 212.547L17.3507 162.584C16.4835 161.608 16 160.314 16 158.969C16 157.623 16.4835 156.329 17.3507 155.353Z" fill="white" stroke="white" stroke-width="32" stroke-linecap="round" stroke-linejoin="round"/>
</svg>
