<svg width="710" height="679" viewBox="0 0 710 679" fill="none" xmlns="http://www.w3.org/2000/svg">
<path d="M205.784 214.653C204.9 214.653 204.208 215.413 204.29 216.293L206.935 244.582C207.655 252.292 214.126 258.186 221.87 258.186H233.385H247.908C254.568 258.186 260.791 254.871 264.507 249.343L271.007 239.672L280.435 214.653H205.784Z" fill="white"/>
<path d="M376.379 215.815C376.479 215.206 376.009 214.653 375.393 214.653H299.763L307.121 239.672L310.587 246.866C313.921 253.787 320.924 258.186 328.605 258.186H342.744H356.703C364.052 258.186 370.32 252.861 371.506 245.608L376.379 215.815Z" fill="white"/>
<path d="M169.785 192.637C182.738 199.642 222.685 121.583 222.685 121.583L313.225 176.124C359.204 192.371 384.798 195.766 430.215 194.638C425.601 165.565 418.456 150.802 390.54 129.589L432.758 139.597C423.647 90.5712 414.865 66.0258 351.374 60.5367C340.608 49.0988 354.826 43.5567 376.569 33.5163C333.92 19.8526 312.024 19.8489 277.111 35.5178L271.007 12C141.478 41.8235 156.833 185.631 169.785 192.637Z" fill="white"/>
<path d="M105.187 447.322C105.187 441.799 109.664 437.322 115.187 437.322H463.958C469.481 437.322 473.958 441.799 473.958 447.322V581.431V673H105.187V581.431V447.322Z" fill="white"/>
<path d="M376.569 343.251C462.68 381.73 502.665 406.992 507.293 428.315L565.279 576.927C574.912 623.11 567.637 644.862 522.044 673H473.958M156.833 208.148C146.076 211.549 136.589 268.39 183.791 276.7C183.791 406.298 387.76 428.315 394.372 276.7C423.749 268.824 446 239.672 427.435 212.652M204.137 343.251C114.098 382.967 74.6646 404.975 64.2582 442.826L13.3932 572.424C-3.30628 617.289 6.91316 641.253 58.1543 673H105.187M280.435 214.653H205.784C204.9 214.653 204.208 215.413 204.29 216.293L206.935 244.582C207.655 252.292 214.126 258.186 221.87 258.186H233.385H247.908C254.568 258.186 260.791 254.871 264.507 249.343L271.007 239.672L280.435 214.653ZM280.435 214.653H299.763M299.763 214.653H375.393C376.009 214.653 376.479 215.206 376.379 215.815L371.506 245.608C370.32 252.861 364.052 258.186 356.703 258.186H342.744H328.605C320.924 258.186 313.921 253.787 310.587 246.866L307.121 239.672L299.763 214.653ZM280.435 221.158H299.763M105.187 673H473.958M105.187 673V581.431M473.958 673V581.431M66.5294 559.914L105.187 581.431M105.187 581.431V447.322C105.187 441.799 109.664 437.322 115.187 437.322H463.958C469.481 437.322 473.958 441.799 473.958 447.322V581.431M473.958 581.431L513.125 559.914M169.785 192.637C182.738 199.642 222.685 121.583 222.685 121.583L313.225 176.124C359.204 192.371 384.798 195.766 430.215 194.638C425.601 165.565 418.456 150.802 390.54 129.589L432.758 139.597C423.647 90.5712 414.865 66.0258 351.374 60.5367C340.608 49.0988 354.826 43.5567 376.569 33.5163C333.92 19.8526 312.024 19.8489 277.111 35.5178L271.007 12C141.478 41.8235 156.833 185.631 169.785 192.637Z" stroke="white" stroke-width="12" stroke-linecap="round"/>
<path d="M261.994 568.1L261.994 568.1L261.997 568.109C263.341 571.854 264.961 575.06 266.869 577.709L266.869 577.709L266.876 577.719C268.492 579.906 270.075 581.795 271.625 583.381C273.309 585.102 275.32 586 277.619 586C279.041 586 280.325 585.771 281.441 585.277C282.419 584.856 283.439 584.434 284.5 584.012C285.449 583.645 286.677 583.442 288.216 583.442C289.825 583.442 291.006 583.649 291.821 584L291.831 584.004L291.842 584.008C292.819 584.403 293.767 584.81 294.688 585.23L294.699 585.235L294.71 585.24C295.81 585.711 297.153 585.92 298.691 585.92C301.14 585.92 303.252 585.006 304.975 583.218C306.579 581.582 308.068 579.797 309.444 577.865L309.446 577.861C311.016 575.633 312.164 573.572 312.863 571.682C313.206 570.792 313.467 570.108 313.647 569.634C313.737 569.396 313.807 569.208 313.857 569.071C313.896 568.964 313.946 568.827 313.968 568.74L314.173 567.948L313.436 567.591C313.437 567.591 313.437 567.591 313.435 567.59C313.433 567.589 313.425 567.585 313.411 567.578L313.336 567.54C313.272 567.507 313.181 567.461 313.065 567.401C312.833 567.282 312.499 567.11 312.062 566.885C311.301 566.48 310.378 565.827 309.287 564.899C308.297 564.009 307.393 562.821 306.587 561.311C305.854 559.888 305.464 558.111 305.464 555.939C305.464 554.047 305.776 552.478 306.363 551.199L306.365 551.193C306.991 549.804 307.704 548.705 308.49 547.871L308.49 547.871L308.5 547.86C309.35 546.933 310.087 546.275 310.712 545.856L310.722 545.849L310.733 545.842C311.092 545.587 311.376 545.384 311.582 545.232C311.758 545.102 311.945 544.963 312.047 544.864L312.665 544.265L312.164 543.565C310.664 541.467 308.952 539.916 307.012 538.973C305.212 538.06 303.509 537.483 301.911 537.278C300.454 537.092 299.366 536.99 298.691 536.99C296.998 536.99 295.392 537.245 293.88 537.761C292.458 538.221 291.168 538.696 290.01 539.189C288.957 539.637 288.105 539.828 287.433 539.828C286.722 539.828 285.866 539.645 284.849 539.226C283.757 538.765 282.586 538.319 281.335 537.887C279.983 537.394 278.55 537.15 277.041 537.15C274.215 537.15 271.489 537.909 268.877 539.4C266.256 540.884 264.128 543.087 262.483 545.967C260.808 548.874 260 552.428 260 556.578C260 560.453 260.667 564.295 261.994 568.1ZM297.182 533.564L297.187 533.559C298.245 532.305 299.107 530.886 299.776 529.306L299.779 529.3C300.46 527.663 300.804 525.974 300.804 524.239C300.804 523.707 300.759 523.212 300.653 522.768L300.464 521.973L299.647 522.001C297.879 522.06 296.061 522.575 294.202 523.505C292.344 524.434 290.781 525.613 289.532 527.051C288.546 528.125 287.687 529.464 286.942 531.046C286.166 532.667 285.773 534.359 285.773 536.112C285.773 536.389 285.789 536.659 285.823 536.919C285.85 537.128 285.887 537.368 285.951 537.556L286.139 538.103L286.707 538.213C287.049 538.279 287.402 538.311 287.763 538.311C289.412 538.311 291.107 537.843 292.835 536.963L292.835 536.963L292.847 536.957C294.568 536.052 296.019 534.923 297.182 533.564Z" fill="black" stroke="black" stroke-width="2"/>
<path d="M525.5 131L561.5 163.5L525.5 203.5M592 198C618.165 198 632.835 198 659 198M479 249V304.5M564 249V304.5M528 339.5V370.75V399M659 339.5V399" stroke="white" stroke-width="12" stroke-linecap="round" stroke-linejoin="round"/>
<path d="M521.7 312.147C516.369 312.125 511.815 310.719 508.037 307.93C504.258 305.141 501.368 301.082 499.366 295.751C497.365 290.421 496.364 284 496.364 276.488C496.364 268.999 497.365 262.6 499.366 257.293C501.391 251.985 504.292 247.937 508.07 245.148C511.871 242.359 516.414 240.964 521.7 240.964C526.985 240.964 531.517 242.37 535.295 245.181C539.074 247.97 541.964 252.019 543.965 257.326C545.989 262.612 547.001 268.999 547.001 276.488C547.001 284.023 546.001 290.455 543.999 295.785C541.997 301.093 539.107 305.152 535.329 307.964C531.55 310.753 527.007 312.147 521.7 312.147ZM521.7 303.14C526.378 303.14 530.032 300.857 532.664 296.291C535.318 291.726 536.645 285.125 536.645 276.488C536.645 270.753 536.037 265.906 534.823 261.948C533.631 257.967 531.91 254.954 529.661 252.907C527.435 250.838 524.781 249.803 521.7 249.803C517.044 249.803 513.389 252.097 510.735 256.685C508.082 261.273 506.743 267.874 506.721 276.488C506.721 282.246 507.317 287.115 508.509 291.096C509.723 295.054 511.444 298.057 513.67 300.103C515.897 302.127 518.573 303.14 521.7 303.14Z" fill="white"/>
<path d="M607.7 312.147C602.369 312.125 597.815 310.719 594.037 307.93C590.258 305.141 587.368 301.082 585.366 295.751C583.365 290.421 582.364 284 582.364 276.488C582.364 268.999 583.365 262.6 585.366 257.293C587.391 251.985 590.292 247.937 594.07 245.148C597.871 242.359 602.414 240.964 607.7 240.964C612.985 240.964 617.517 242.37 621.295 245.181C625.074 247.97 627.964 252.019 629.965 257.326C631.989 262.612 633.001 268.999 633.001 276.488C633.001 284.023 632.001 290.455 629.999 295.785C627.997 301.093 625.107 305.152 621.329 307.964C617.55 310.753 613.007 312.147 607.7 312.147ZM607.7 303.14C612.378 303.14 616.032 300.857 618.664 296.291C621.318 291.726 622.645 285.125 622.645 276.488C622.645 270.753 622.037 265.906 620.823 261.948C619.631 257.967 617.91 254.954 615.661 252.907C613.435 250.838 610.781 249.803 607.7 249.803C603.044 249.803 599.389 252.097 596.735 256.685C594.082 261.273 592.743 267.874 592.721 276.488C592.721 282.246 593.317 287.115 594.509 291.096C595.723 295.054 597.444 298.057 599.67 300.103C601.897 302.127 604.573 303.14 607.7 303.14Z" fill="white"/>
<path d="M568.7 404.147C563.369 404.125 558.815 402.719 555.037 399.93C551.258 397.141 548.368 393.082 546.366 387.751C544.365 382.421 543.364 376 543.364 368.488C543.364 360.999 544.365 354.6 546.366 349.293C548.391 343.985 551.292 339.937 555.07 337.148C558.871 334.359 563.414 332.964 568.7 332.964C573.985 332.964 578.517 334.37 582.295 337.181C586.074 339.97 588.964 344.019 590.965 349.326C592.989 354.612 594.001 360.999 594.001 368.488C594.001 376.023 593.001 382.455 590.999 387.785C588.997 393.093 586.107 397.152 582.329 399.964C578.55 402.753 574.007 404.147 568.7 404.147ZM568.7 395.14C573.378 395.14 577.032 392.857 579.664 388.291C582.318 383.726 583.645 377.125 583.645 368.488C583.645 362.753 583.037 357.906 581.823 353.948C580.631 349.967 578.91 346.954 576.661 344.907C574.435 342.838 571.781 341.803 568.7 341.803C564.044 341.803 560.389 344.097 557.735 348.685C555.082 353.273 553.743 359.874 553.721 368.488C553.721 374.246 554.317 379.115 555.509 383.096C556.723 387.054 558.444 390.057 560.67 392.103C562.897 394.127 565.573 395.14 568.7 395.14Z" fill="white"/>
<path d="M622.7 404.147C617.369 404.125 612.815 402.719 609.037 399.93C605.258 397.141 602.368 393.082 600.366 387.751C598.365 382.421 597.364 376 597.364 368.488C597.364 360.999 598.365 354.6 600.366 349.293C602.391 343.985 605.292 339.937 609.07 337.148C612.871 334.359 617.414 332.964 622.7 332.964C627.985 332.964 632.517 334.37 636.295 337.181C640.074 339.97 642.964 344.019 644.965 349.326C646.989 354.612 648.001 360.999 648.001 368.488C648.001 376.023 647.001 382.455 644.999 387.785C642.997 393.093 640.107 397.152 636.329 399.964C632.55 402.753 628.007 404.147 622.7 404.147ZM622.7 395.14C627.378 395.14 631.032 392.857 633.664 388.291C636.318 383.726 637.645 377.125 637.645 368.488C637.645 362.753 637.037 357.906 635.823 353.948C634.631 349.967 632.91 346.954 630.661 344.907C628.435 342.838 625.781 341.803 622.7 341.803C618.044 341.803 614.389 344.097 611.735 348.685C609.082 353.273 607.743 359.874 607.721 368.488C607.721 374.246 608.317 379.115 609.509 383.096C610.723 387.054 612.444 390.057 614.67 392.103C616.897 394.127 619.573 395.14 622.7 395.14Z" fill="white"/>
<g filter="url(#filter0_d_515_331)">
<path d="M424.1 477H415.475V464.025L417.65 461.9H415.175V459.725H424.1V461.9H417.95V468.05L419.775 466.2H424.1V468.35H417.95V474.825H424.1V477ZM438.604 474.825L436.429 477H427.804V464.025L429.979 461.9H427.504V459.725H436.429L438.604 461.9V474.825ZM436.129 474.825V461.9H430.279V476.7L432.104 474.825H436.129ZM453.883 477H451.433V475.15L449.583 477H445.258L443.083 474.825V459.725H445.558V474.825H451.433V459.725H453.883V477Z" fill="black"/>
</g>
<defs>
<filter id="filter0_d_515_331" x="411.175" y="459.725" width="46.708" height="25.275" filterUnits="userSpaceOnUse" color-interpolation-filters="sRGB">
<feFlood flood-opacity="0" result="BackgroundImageFix"/>
<feColorMatrix in="SourceAlpha" type="matrix" values="0 0 0 0 0 0 0 0 0 0 0 0 0 0 0 0 0 0 127 0" result="hardAlpha"/>
<feOffset dy="4"/>
<feGaussianBlur stdDeviation="2"/>
<feComposite in2="hardAlpha" operator="out"/>
<feColorMatrix type="matrix" values="0 0 0 0 0 0 0 0 0 0 0 0 0 0 0 0 0 0 0.25 0"/>
<feBlend mode="normal" in2="BackgroundImageFix" result="effect1_dropShadow_515_331"/>
<feBlend mode="normal" in="SourceGraphic" in2="effect1_dropShadow_515_331" result="shape"/>
</filter>
</defs>
</svg>
