<svg width="663" height="670" viewBox="0 0 663 670" fill="none" xmlns="http://www.w3.org/2000/svg">
<path d="M374.569 336.251C460.68 374.73 500.665 399.992 505.293 421.315L563.279 569.927C572.912 616.11 565.637 637.862 520.044 666H471.958M154.833 201.148C144.076 204.549 134.589 261.39 181.791 269.7C181.791 399.298 385.76 421.315 392.372 269.7C421.749 261.824 444 232.672 425.435 205.652M202.137 336.251C112.098 375.967 72.6646 397.975 62.2582 435.826L11.3932 565.424C-5.30628 610.289 4.91316 634.253 56.1543 666H103.187M278.435 207.653H203.784C202.9 207.653 202.208 208.413 202.29 209.293L204.935 237.582C205.655 245.292 212.126 251.186 219.87 251.186H231.385H245.908C252.568 251.186 258.791 247.871 262.507 242.343L269.007 232.672L278.435 207.653ZM278.435 207.653H297.763M297.763 207.653H373.393C374.009 207.653 374.479 208.206 374.379 208.815L369.506 238.608C368.32 245.861 362.052 251.186 354.703 251.186H340.744H326.605C318.924 251.186 311.921 246.787 308.587 239.866L305.121 232.672L297.763 207.653ZM278.435 214.158H297.763M103.187 666H471.958M103.187 666V574.431M471.958 666V574.431M64.5294 552.914L103.187 574.431M103.187 574.431V440.322C103.187 434.799 107.664 430.322 113.187 430.322H461.958C467.481 430.322 471.958 434.799 471.958 440.322V574.431M471.958 574.431L511.125 552.914M167.785 185.637C180.738 192.642 220.685 114.583 220.685 114.583L311.225 169.124C357.204 185.371 382.798 188.766 428.215 187.638C423.601 158.565 416.456 143.802 388.54 122.589L430.758 132.597C421.647 83.5712 412.865 59.0258 349.374 53.5367C338.608 42.0988 352.826 36.5567 374.569 26.5163C331.92 12.8526 310.024 12.8489 275.111 28.5178L269.007 5C139.478 34.8235 154.833 178.631 167.785 185.637Z" stroke="white" stroke-width="8" stroke-linecap="round"/>
<path d="M258.578 561.594L258.581 561.605L258.585 561.615C259.965 565.462 261.645 568.799 263.652 571.586L263.66 571.598L263.67 571.61C265.317 573.841 266.944 575.785 268.553 577.43C270.495 579.415 272.883 580.5 275.619 580.5C277.196 580.5 278.693 580.246 280.041 579.652C281.001 579.238 282.003 578.824 283.047 578.409C283.772 578.129 284.802 577.942 286.216 577.942C287.722 577.942 288.675 578.139 289.227 578.377L289.254 578.389L289.28 578.399C290.237 578.786 291.166 579.184 292.066 579.595L292.093 579.607L292.12 579.619C293.469 580.196 295.031 580.42 296.691 580.42C299.555 580.42 302.053 579.335 304.051 577.264C305.71 575.57 307.248 573.726 308.665 571.735L308.665 571.735L308.673 571.725C310.287 569.434 311.508 567.259 312.267 565.212C312.608 564.325 312.87 563.641 313.05 563.164C313.14 562.924 313.213 562.731 313.266 562.586L313.272 562.569C313.303 562.483 313.379 562.279 313.421 562.115L313.932 560.133L312.09 559.241C312.096 559.244 312.004 559.197 311.75 559.067C311.52 558.949 311.19 558.779 310.758 558.557C310.133 558.222 309.31 557.649 308.275 556.771C307.448 556.023 306.651 554.992 305.916 553.615C305.321 552.455 304.964 550.93 304.964 548.939C304.964 547.208 305.25 545.862 305.726 544.824L305.73 544.816L305.733 544.808C306.307 543.535 306.934 542.586 307.582 541.9L307.594 541.887L307.605 541.874C308.412 540.994 309.058 540.43 309.548 540.102L309.574 540.084L309.6 540.066C309.962 539.809 310.254 539.6 310.471 539.44L310.488 539.428C310.634 539.32 310.906 539.121 311.091 538.941L312.636 537.443L311.384 535.692C309.778 533.446 307.889 531.707 305.679 530.63C303.776 529.666 301.91 529.022 300.101 528.79C298.645 528.604 297.472 528.49 296.691 528.49C296.25 528.49 295.814 528.506 295.383 528.538C295.711 528.219 296.025 527.887 296.322 527.539L296.328 527.533L296.333 527.526C297.493 526.151 298.433 524.602 299.158 522.891L299.161 522.884L299.164 522.877C299.919 521.062 300.304 519.178 300.304 517.239C300.304 516.627 300.253 516.01 300.112 515.421L299.639 513.433L297.597 513.501C295.569 513.569 293.54 514.159 291.532 515.163C289.524 516.166 287.803 517.457 286.413 519.052C285.31 520.258 284.377 521.725 283.587 523.403C282.719 525.218 282.273 527.129 282.273 529.112C282.273 529.446 282.292 529.78 282.335 530.111C282.345 530.189 282.359 530.294 282.379 530.413C281.568 530.092 280.72 529.779 279.836 529.474C278.313 528.919 276.709 528.65 275.041 528.65C271.934 528.65 268.955 529.487 266.135 531.096C263.253 532.729 260.943 535.138 259.182 538.221C257.344 541.411 256.5 545.239 256.5 549.578C256.5 553.628 257.197 557.637 258.578 561.594Z" stroke="white" stroke-width="5"/>
<path d="M523.5 124L559.5 156.5L523.5 196.5M590 191C616.165 191 630.835 191 657 191M477 242V297.5M562 242V297.5M526 332.5V363.75V392M657 332.5V392" stroke="white" stroke-width="12" stroke-linecap="round" stroke-linejoin="round"/>
<path d="M519.7 305.147C514.369 305.125 509.815 303.719 506.037 300.93C502.258 298.141 499.368 294.082 497.366 288.751C495.365 283.421 494.364 277 494.364 269.488C494.364 261.999 495.365 255.6 497.366 250.293C499.391 244.985 502.292 240.937 506.07 238.148C509.871 235.359 514.414 233.964 519.7 233.964C524.985 233.964 529.517 235.37 533.295 238.181C537.074 240.97 539.964 245.019 541.965 250.326C543.989 255.612 545.001 261.999 545.001 269.488C545.001 277.023 544.001 283.455 541.999 288.785C539.997 294.093 537.107 298.152 533.329 300.964C529.55 303.753 525.007 305.147 519.7 305.147ZM519.7 296.14C524.378 296.14 528.032 293.857 530.664 289.291C533.318 284.726 534.645 278.125 534.645 269.488C534.645 263.753 534.037 258.906 532.823 254.948C531.631 250.967 529.91 247.954 527.661 245.907C525.435 243.838 522.781 242.803 519.7 242.803C515.044 242.803 511.389 245.097 508.735 249.685C506.082 254.273 504.743 260.874 504.721 269.488C504.721 275.246 505.317 280.115 506.509 284.096C507.723 288.054 509.444 291.057 511.67 293.103C513.897 295.127 516.573 296.14 519.7 296.14Z" fill="white"/>
<path d="M605.7 305.147C600.369 305.125 595.815 303.719 592.037 300.93C588.258 298.141 585.368 294.082 583.366 288.751C581.365 283.421 580.364 277 580.364 269.488C580.364 261.999 581.365 255.6 583.366 250.293C585.391 244.985 588.292 240.937 592.07 238.148C595.871 235.359 600.414 233.964 605.7 233.964C610.985 233.964 615.517 235.37 619.295 238.181C623.074 240.97 625.964 245.019 627.965 250.326C629.989 255.612 631.001 261.999 631.001 269.488C631.001 277.023 630.001 283.455 627.999 288.785C625.997 294.093 623.107 298.152 619.329 300.964C615.55 303.753 611.007 305.147 605.7 305.147ZM605.7 296.14C610.378 296.14 614.032 293.857 616.664 289.291C619.318 284.726 620.645 278.125 620.645 269.488C620.645 263.753 620.037 258.906 618.823 254.948C617.631 250.967 615.91 247.954 613.661 245.907C611.435 243.838 608.781 242.803 605.7 242.803C601.044 242.803 597.389 245.097 594.735 249.685C592.082 254.273 590.743 260.874 590.721 269.488C590.721 275.246 591.317 280.115 592.509 284.096C593.723 288.054 595.444 291.057 597.67 293.103C599.897 295.127 602.573 296.14 605.7 296.14Z" fill="white"/>
<path d="M566.7 397.147C561.369 397.125 556.815 395.719 553.037 392.93C549.258 390.141 546.368 386.082 544.366 380.751C542.365 375.421 541.364 369 541.364 361.488C541.364 353.999 542.365 347.6 544.366 342.293C546.391 336.985 549.292 332.937 553.07 330.148C556.871 327.359 561.414 325.964 566.7 325.964C571.985 325.964 576.517 327.37 580.295 330.181C584.074 332.97 586.964 337.019 588.965 342.326C590.989 347.612 592.001 353.999 592.001 361.488C592.001 369.023 591.001 375.455 588.999 380.785C586.997 386.093 584.107 390.152 580.329 392.964C576.55 395.753 572.007 397.147 566.7 397.147ZM566.7 388.14C571.378 388.14 575.032 385.857 577.664 381.291C580.318 376.726 581.645 370.125 581.645 361.488C581.645 355.753 581.037 350.906 579.823 346.948C578.631 342.967 576.91 339.954 574.661 337.907C572.435 335.838 569.781 334.803 566.7 334.803C562.044 334.803 558.389 337.097 555.735 341.685C553.082 346.273 551.743 352.874 551.721 361.488C551.721 367.246 552.317 372.115 553.509 376.096C554.723 380.054 556.444 383.057 558.67 385.103C560.897 387.127 563.573 388.14 566.7 388.14Z" fill="white"/>
<path d="M620.7 397.147C615.369 397.125 610.815 395.719 607.037 392.93C603.258 390.141 600.368 386.082 598.366 380.751C596.365 375.421 595.364 369 595.364 361.488C595.364 353.999 596.365 347.6 598.366 342.293C600.391 336.985 603.292 332.937 607.07 330.148C610.871 327.359 615.414 325.964 620.7 325.964C625.985 325.964 630.517 327.37 634.295 330.181C638.074 332.97 640.964 337.019 642.965 342.326C644.989 347.612 646.001 353.999 646.001 361.488C646.001 369.023 645.001 375.455 642.999 380.785C640.997 386.093 638.107 390.152 634.329 392.964C630.55 395.753 626.007 397.147 620.7 397.147ZM620.7 388.14C625.378 388.14 629.032 385.857 631.664 381.291C634.318 376.726 635.645 370.125 635.645 361.488C635.645 355.753 635.037 350.906 633.823 346.948C632.631 342.967 630.91 339.954 628.661 337.907C626.435 335.838 623.781 334.803 620.7 334.803C616.044 334.803 612.389 337.097 609.735 341.685C607.082 346.273 605.743 352.874 605.721 361.488C605.721 367.246 606.317 372.115 607.509 376.096C608.723 380.054 610.444 383.057 612.67 385.103C614.897 387.127 617.573 388.14 620.7 388.14Z" fill="white"/>
<g filter="url(#filter0_d_505_2)">
<path d="M422.1 470H413.475V457.025L415.65 454.9H413.175V452.725H422.1V454.9H415.95V461.05L417.775 459.2H422.1V461.35H415.95V467.825H422.1V470ZM436.604 467.825L434.429 470H425.804V457.025L427.979 454.9H425.504V452.725H434.429L436.604 454.9V467.825ZM434.129 467.825V454.9H428.279V469.7L430.104 467.825H434.129ZM451.883 470H449.433V468.15L447.583 470H443.258L441.083 467.825V452.725H443.558V467.825H449.433V452.725H451.883V470Z" fill="white"/>
</g>
<defs>
<filter id="filter0_d_505_2" x="409.175" y="452.725" width="46.7083" height="25.2749" filterUnits="userSpaceOnUse" color-interpolation-filters="sRGB">
<feFlood flood-opacity="0" result="BackgroundImageFix"/>
<feColorMatrix in="SourceAlpha" type="matrix" values="0 0 0 0 0 0 0 0 0 0 0 0 0 0 0 0 0 0 127 0" result="hardAlpha"/>
<feOffset dy="4"/>
<feGaussianBlur stdDeviation="2"/>
<feComposite in2="hardAlpha" operator="out"/>
<feColorMatrix type="matrix" values="0 0 0 0 0 0 0 0 0 0 0 0 0 0 0 0 0 0 0.25 0"/>
<feBlend mode="normal" in2="BackgroundImageFix" result="effect1_dropShadow_505_2"/>
<feBlend mode="normal" in="SourceGraphic" in2="effect1_dropShadow_505_2" result="shape"/>
</filter>
</defs>
</svg>
