<svg width="768" height="768" viewBox="0 0 768 768" fill="none" xmlns="http://www.w3.org/2000/svg">
<path d="M98.592 768C39.616 768 0 722.48 0 654.736V113.264C0 45.5201 39.616 4.57764e-05 98.592 4.57764e-05C118.768 4.57764e-05 139.728 5.53605 160.88 16.4641L703.744 296.896C759.648 325.792 768 363.872 768 384C768 404.128 759.648 442.208 703.728 471.088L160.864 751.536C139.712 762.464 118.768 768 98.592 768ZM98.592 63.696C67.584 63.696 64.224 98.3521 64.224 113.264V654.736C64.224 669.632 67.568 704.304 98.592 704.304C108.192 704.304 119.472 701.104 131.2 695.056L674.064 414.624C695.968 403.296 703.776 391.392 703.776 384.016C703.776 376.64 695.968 364.736 674.064 353.424L131.2 72.9601C119.472 66.9121 108.192 63.696 98.592 63.696Z" fill="black"/>
</svg>
