<svg width="768" height="769" viewBox="0 0 768 769" fill="none" xmlns="http://www.w3.org/2000/svg">
<path d="M98.592 768.96C39.616 768.96 0 723.44 0 655.696V114.224C0 46.48 39.616 0.960007 98.592 0.960007C118.768 0.960007 139.728 6.49601 160.88 17.424L703.744 297.856C759.648 326.752 768 364.832 768 384.96C768 405.088 759.648 443.168 703.728 472.048L160.864 752.496C139.712 763.424 118.768 768.96 98.592 768.96ZM98.592 64.656C67.584 64.656 64.224 99.312 64.224 114.224V655.696C64.224 670.592 67.568 705.264 98.592 705.264C108.192 705.264 119.472 702.064 131.2 696.016L674.064 415.584C695.968 404.256 703.776 392.352 703.776 384.976C703.776 377.6 695.968 365.696 674.064 354.384L131.2 73.92C119.472 67.872 108.192 64.656 98.592 64.656Z" fill="white"/>
</svg>
